<svg width="20" height="20" viewBox="0 0 20 20" fill="none" xmlns="http://www.w3.org/2000/svg">
<path fill-rule="evenodd" clip-rule="evenodd" d="M9.95227 1.0415L11.2501 1.0415C11.5953 1.0415 11.8751 1.32133 11.8751 1.6665C11.8751 2.01168 11.5953 2.2915 11.2501 2.2915H10.0001C8.01823 2.2915 6.59471 2.29283 5.51139 2.43848C4.44606 2.58171 3.80379 2.85412 3.32908 3.32883C2.85436 3.80355 2.58195 4.44581 2.43872 5.51115C2.29308 6.59447 2.29175 8.01798 2.29175 9.99984C2.29175 11.9817 2.29308 13.4052 2.43872 14.4885C2.58195 15.5539 2.85436 16.1961 3.32908 16.6708C3.80379 17.1456 4.44606 17.418 5.51139 17.5612C6.59471 17.7068 8.01823 17.7082 10.0001 17.7082C11.9819 17.7082 13.4055 17.7068 14.4888 17.5612C15.5541 17.418 16.1964 17.1456 16.6711 16.6708C17.1458 16.1961 17.4182 15.5539 17.5614 14.4885C17.7071 13.4052 17.7084 11.9817 17.7084 9.99984V8.74984C17.7084 8.40466 17.9882 8.12484 18.3334 8.12484C18.6786 8.12484 18.9584 8.40466 18.9584 8.74984V10.0476C18.9584 11.9713 18.9584 13.4788 18.8003 14.6551C18.6384 15.859 18.3006 16.809 17.555 17.5547C16.8093 18.3004 15.8593 18.6382 14.6553 18.8C13.4791 18.9582 11.9716 18.9582 10.0479 18.9582H9.95227C8.02861 18.9582 6.52108 18.9582 5.34484 18.8C4.14089 18.6382 3.19087 18.3004 2.44519 17.5547C1.69952 16.809 1.36174 15.859 1.19987 14.6551C1.04173 13.4788 1.04174 11.9713 1.04175 10.0477V9.95202C1.04174 8.02836 1.04173 6.52083 1.19987 5.34459C1.36174 4.14064 1.69952 3.19063 2.44519 2.44495C3.19087 1.69928 4.14089 1.36149 5.34484 1.19963C6.52107 1.04148 8.0286 1.04149 9.95227 1.0415ZM13.9755 1.89643C15.1154 0.756528 16.9636 0.756528 18.1035 1.89643C19.2434 3.03634 19.2434 4.88449 18.1035 6.02439L12.5634 11.5645C12.254 11.8739 12.0602 12.0678 11.8439 12.2365C11.5892 12.4352 11.3135 12.6055 11.0219 12.7445C10.7743 12.8625 10.5142 12.9492 10.0991 13.0875L7.67863 13.8943C7.23176 14.0433 6.73908 13.927 6.40601 13.5939C6.07293 13.2608 5.95663 12.7682 6.10558 12.3213L6.91239 9.90086C7.05074 9.48572 7.1374 9.22566 7.25541 8.97805C7.3944 8.6864 7.56476 8.41076 7.76345 8.15602C7.93215 7.93973 8.126 7.74591 8.43545 7.4365L13.9755 1.89643ZM17.2196 2.78032C16.5679 2.12857 15.5112 2.12857 14.8594 2.78032L14.5456 3.09417C14.5645 3.17405 14.5909 3.26923 14.6278 3.37539C14.7472 3.71961 14.9732 4.17293 15.4001 4.59983C15.827 5.02673 16.2803 5.25272 16.6245 5.37215C16.7307 5.40898 16.8259 5.43544 16.9058 5.45436L17.2196 5.14051C17.8714 4.48876 17.8714 3.43207 17.2196 2.78032ZM15.921 6.43908C15.4911 6.25416 14.9902 5.95772 14.5162 5.48371C14.0422 5.00971 13.7458 4.50885 13.5608 4.07888L9.348 8.29172C9.00091 8.63881 8.86478 8.77646 8.74909 8.92479C8.60623 9.10795 8.48375 9.30613 8.38382 9.51582C8.30289 9.68563 8.24064 9.86895 8.08542 10.3346L7.72551 11.4144L8.58555 12.2744L9.66529 11.9145C10.131 11.7593 10.3143 11.697 10.4841 11.6161C10.6938 11.5162 10.892 11.3937 11.0751 11.2508C11.2235 11.1351 11.3611 10.999 11.7082 10.6519L15.921 6.43908Z" fill="#877EFF"/>
</svg>
