<svg width="20" height="20" viewBox="0 0 20 20" fill="none" xmlns="http://www.w3.org/2000/svg">
<path fill-rule="evenodd" clip-rule="evenodd" d="M2.70801 8.45258C2.70801 4.37006 5.96218 1.0415 9.99967 1.0415C14.0372 1.0415 17.2913 4.37006 17.2913 8.45258C17.2913 10.4235 16.7297 12.5398 15.7367 14.3681C14.745 16.1941 13.296 17.7809 11.4834 18.6281C10.5418 19.0682 9.45754 19.0682 8.51592 18.6281C6.70332 17.7809 5.25436 16.1941 4.26264 14.3681C3.2697 12.5398 2.70801 10.4235 2.70801 8.45258ZM9.99967 2.2915C6.67337 2.2915 3.95801 5.0394 3.95801 8.45258C3.95801 10.2001 4.4602 12.1127 5.36109 13.7715C6.26321 15.4325 7.53802 16.7912 9.04521 17.4957C9.65138 17.779 10.348 17.779 10.9541 17.4957C12.4613 16.7912 13.7361 15.4325 14.6383 13.7715C15.5391 12.1127 16.0413 10.2001 16.0413 8.45258C16.0413 5.0394 13.326 2.2915 9.99967 2.2915ZM9.99967 6.45817C8.96414 6.45817 8.12467 7.29764 8.12467 8.33317C8.12467 9.3687 8.96414 10.2082 9.99967 10.2082C11.0352 10.2082 11.8747 9.3687 11.8747 8.33317C11.8747 7.29764 11.0352 6.45817 9.99967 6.45817ZM6.87467 8.33317C6.87467 6.60728 8.27379 5.20817 9.99967 5.20817C11.7256 5.20817 13.1247 6.60728 13.1247 8.33317C13.1247 10.0591 11.7256 11.4582 9.99967 11.4582C8.27379 11.4582 6.87467 10.0591 6.87467 8.33317Z" fill="#5C5C7B"/>
</svg>
