<svg viewBox="0 0 512 512" xmlns="http://www.w3.org/2000/svg"><g id="FILES_AND_FOLDER" data-name="FILES AND FOLDER"><path d="m280.16 410.08a130 130 0 0 1 204-106.79q2.42-58.1-.93-116.19c-1.8-29.36-29.42-55.18-60-57q-94.72-5.18-189.59-4.89a21.75 21.75 0 0 1 -16.57-7.6c-16.17-18.8-31.81-37.4-46.76-55.61a29.64 29.64 0 0 0 -24.75-11q-38.13 2-76.22 5.45c-29.25 2.86-57.34 29.75-61.05 59.04a1170.83 1170.83 0 0 0 .05 278.56c3.72 29.3 31.8 56.19 61.05 59.08a1894.08 1894.08 0 0 0 220.86 7.32 129.65 129.65 0 0 1 -10.09-50.37z"/><path d="m410.07 308.15a101.93 101.93 0 1 0 101.93 101.92 101.92 101.92 0 0 0 -101.93-101.92zm-19 51.35a19 19 0 0 1 38 0v50.13a19 19 0 0 1 -38 0zm37.6 111a10.73 10.73 0 0 1 -8.26 8.26 66.43 66.43 0 0 1 -20.3 0 10.73 10.73 0 0 1 -8.26-8.26 66.37 66.37 0 0 1 0-20.29 10.72 10.72 0 0 1 8.26-8.26 66.43 66.43 0 0 1 20.3 0 10.72 10.72 0 0 1 8.26 8.26 66.37 66.37 0 0 1 0 20.29z"/></g></svg>