<svg width="97" height="77" viewBox="0 0 97 77" fill="none" xmlns="http://www.w3.org/2000/svg">
<path d="M17.0168 24.0904H17.3119C20.066 23.8936 22.1316 21.533 22.0332 18.7789C21.8365 16.0248 19.4759 13.9592 16.7218 14.0576C13.9677 14.1559 11.9021 16.6149 12.0004 19.369C12.0988 22.0248 14.3611 24.0904 17.0168 24.0904ZM14.6562 17.0084C15.148 16.4182 15.9349 16.0248 16.7218 16.0248H16.9185C18.5906 16.0248 19.9677 17.4018 19.9677 19.074C19.9677 20.7461 18.5906 22.1231 16.9185 22.1231C15.2463 22.1231 13.8693 20.7461 13.8693 19.074C13.8693 18.2871 14.1644 17.5986 14.6562 17.0084Z" fill="#5C5C7B"/>
<path d="M84.2961 18.5818L58.0338 17.1064L57.8371 14.1555C57.542 8.54898 52.7223 4.22111 47.0174 4.51619L13.6731 6.38504C8.06656 6.68012 3.73869 11.5982 4.03377 17.2047L5.90262 50.6473V51.4342C6.59115 56.549 10.919 60.385 16.0338 60.385H16.6239L37.9682 59.2047V59.7949C37.6731 65.4014 41.9026 70.3195 47.6075 70.6146L81.0502 72.5818H81.6403C87.0502 72.5818 91.5748 68.3523 91.8698 62.9424L93.8371 29.4998C94.2305 23.7949 89.9026 18.9752 84.2961 18.5818ZM8.06656 11.1064C9.54197 9.43422 11.6075 8.45062 13.7715 8.35226L47.2141 6.4834C51.7387 6.18832 55.6731 9.72931 55.9682 14.2539L56.1649 17.008L50.9518 16.7129C45.3452 16.4178 40.4272 20.6473 40.1321 26.3523L39.542 35.6965L30.1977 46.2211C30.001 46.5162 29.6075 46.6146 29.2141 46.7129C28.8207 46.7129 28.5256 46.6146 28.2305 46.3195L20.5584 39.4342C19.1813 38.1555 17.1157 38.3523 15.837 39.7293L7.86983 48.6801L6.09934 17.2047C5.90262 14.9424 6.68951 12.7785 8.06656 11.1064ZM16.6239 58.3195C12.3944 58.5162 8.65672 55.5654 7.96819 51.3359L17.2141 41.008C17.4108 40.7129 17.8043 40.6146 18.1977 40.5162C18.5911 40.5162 18.8862 40.6146 19.1813 40.9096L26.8534 47.7949C27.542 48.385 28.4272 48.6801 29.3125 48.6801C30.1977 48.6801 30.9846 48.1883 31.5748 47.5982L39.2469 38.9424L38.1649 57.2375L16.6239 58.3195ZM91.8698 29.3031L89.9026 62.7457C89.6075 67.2703 85.6731 70.8113 81.1485 70.5162L47.7059 68.549C43.1813 68.2539 39.6403 64.3195 39.9354 59.7949L41.9026 26.3523C42.1977 22.0244 45.7387 18.5818 50.1649 18.5818H50.6567L84.0993 20.549C88.7223 20.8441 92.1649 24.7785 91.8698 29.3031Z" fill="#5C5C7B"/>
<path d="M77.9027 41.4019L61.2797 30.4838C59.2141 29.1068 56.46 29.697 55.1813 31.7625C54.7879 32.451 54.4928 33.1396 54.4928 33.9265L53.3125 53.697C53.2141 56.156 54.9846 58.2215 57.4436 58.4183H57.7387C58.4273 58.4183 59.1158 58.2215 59.7059 57.9265L77.4109 49.074C79.5748 47.992 80.46 45.3363 79.3781 43.1724C78.9846 42.4838 78.4928 41.8937 77.9027 41.4019ZM76.5256 47.3035L58.8207 56.156C58.4273 56.3527 58.0338 56.4511 57.542 56.4511C57.1486 56.4511 56.6568 56.2543 56.3617 56.0576C55.6732 55.5658 55.1814 54.7789 55.2797 53.8937L56.46 34.1232C56.5584 33.2379 57.0502 32.451 57.8371 32.0576C58.624 31.6642 59.5092 31.7625 60.2961 32.156L76.7223 43.074C77.9027 43.8609 78.1977 45.3363 77.4109 46.4183C77.2141 46.8117 76.9191 47.1068 76.5256 47.3035Z" fill="#5C5C7B"/>
</svg>
